PathFileType	4	(X/Y/Z)	 control3min.trc
DataRate	CameraRate	NumFrames	NumMarkers	Units	OrigDataRate	OrigDataStartFrame	OrigNumFrames
200	200	9	43	m	200	751	1000
Frame#	Time	C7			LSH			RSH			MAN			RASI			LASI			HIPR			HIPL			RPSI			LPSI			COX			RTHI1			RTHI2			RTHI3			RTHI4			RLKN			RMKN			RSHA1			RSHA2			RSHA3			RSHA4			RLMAL			RMMAL			RHEEL			RMET5			RMET1			RTOE			LTHI1			LTHI2			LTHI3			LTHI4			LLKN			LMKN			LSHA1			LSHA2			LSHA3			LSHA4			LLMAL			LMMAL			LHEEL			LMET5			LMET1			LTOE			
		X1	Y1	Z1	X2	Y2	Z2	X3	Y3	Z3	X4	Y4	Z4	X5	Y5	Z5	X6	Y6	Z6	X7	Y7	Z7	X8	Y8	Z8	X9	Y9	Z9	X10	Y10	Z10	X11	Y11	Z11	X12	Y12	Z12	X13	Y13	Z13	X14	Y14	Z14	X15	Y15	Z15	X16	Y16	Z16	X17	Y17	Z17	X18	Y18	Z18	X19	Y19	Z19	X20	Y20	Z20	X21	Y21	Z21	X22	Y22	Z22	X23	Y23	Z23	X24	Y24	Z24	X25	Y25	Z25	X26	Y26	Z26	X27	Y27	Z27	X28	Y28	Z28	X29	Y29	Z29	X30	Y30	Z30	X31	Y31	Z31	X32	Y32	Z32	X33	Y33	Z33	X34	Y34	Z34	X35	Y35	Z35	X36	Y36	Z36	X37	Y37	Z37	X38	Y38	Z38	X39	Y39	Z39	X40	Y40	Z40	X41	Y41	Z41	X42	Y42	Z42	X43	Y43	Z43	
751	3.7550	-0.326772	1.452747	-0.506437	-0.300426	1.449563	-0.696678	-0.251095	1.442127	-0.334697	-0.199044	1.385553	-0.520081	-0.205913	0.952168	-0.416357	-0.219299	0.962795	-0.634011	-0.253478	0.999883	-0.378101	-0.286018	1.006623	-0.660333	-0.360468	1.002299	-0.449896	-0.364342	1.007902	-0.563889	-0.366197	1.005923	-0.508794	-0.292962	0.762529	-0.336057	-0.286489	0.701478	-0.336889	-0.215561	0.717254	-0.342189	-0.229300	0.775429	-0.342385	-0.246277	0.456303	-0.358134	-0.240392	0.443390	-0.456371	-0.379501	0.302172	-0.359420	-0.395683	0.264870	-0.372675	-0.339126	0.244027	-0.361094	-0.326420	0.281463	-0.352051	-0.410096	0.112837	-0.381881	-0.391728	0.122239	-0.462210	-0.465935	0.104025	-0.427217	-0.326090	0.034154	-0.352068	-0.271893	0.044134	-0.427744	-0.241111	0.031973	-0.425048	-0.305433	0.740021	-0.707936	-0.295439	0.681250	-0.710883	-0.223859	0.695854	-0.714518	-0.242611	0.754944	-0.711762	-0.240937	0.464160	-0.705672	-0.242246	0.452009	-0.601877	-0.364939	0.285999	-0.717244	-0.381368	0.249375	-0.707702	-0.322684	0.229941	-0.703578	-0.312860	0.271511	-0.713711	-0.389260	0.121909	-0.701208	-0.391812	0.126947	-0.622025	-0.451382	0.111911	-0.672212	-0.294886	0.037086	-0.707414	-0.265315	0.044014	-0.626711	-0.240802	0.036333	-0.631358	
752	3.7600	-0.326772	1.456600	-0.506215	-0.300561	1.453720	-0.696304	-0.251019	1.446357	-0.334657	-0.199133	1.389725	-0.519896	-0.205308	0.956264	-0.416474	-0.218986	0.966972	-0.634092	-0.252791	1.003895	-0.378209	-0.285658	1.010771	-0.660133	-0.359853	1.006253	-0.449794	-0.363875	1.011803	-0.563874	-0.365704	1.009792	-0.508727	-0.292792	0.766637	-0.335992	-0.286728	0.705564	-0.336753	-0.215732	0.720835	-0.342555	-0.229076	0.779115	-0.342718	-0.248017	0.460137	-0.358244	-0.242390	0.447095	-0.456605	-0.380029	0.304994	-0.359074	-0.395897	0.267502	-0.372302	-0.339183	0.247101	-0.360650	-0.326788	0.284688	-0.351699	-0.409087	0.115237	-0.381003	-0.390750	0.124524	-0.461231	-0.464775	0.106611	-0.426213	-0.325566	0.034541	-0.351960	-0.271733	0.044106	-0.427627	-0.241132	0.031974	-0.425150	-0.305620	0.743929	-0.707876	-0.295887	0.685101	-0.710730	-0.224230	0.699397	-0.714110	-0.242735	0.758572	-0.711478	-0.242399	0.467800	-0.705274	-0.244029	0.455628	-0.601399	-0.365043	0.288785	-0.717264	-0.381148	0.252038	-0.707876	-0.322313	0.233097	-0.703909	-0.312838	0.274780	-0.713900	-0.388030	0.124324	-0.701773	-0.390651	0.129173	-0.622766	-0.449990	0.114435	-0.672919	-0.294376	0.037395	-0.707334	-0.265195	0.044034	-0.626763	-0.240853	0.036332	-0.631268	
753	3.7650	-0.326827	1.460542	-0.505980	-0.300759	1.458031	-0.695895	-0.250990	1.450750	-0.334639	-0.199277	1.394075	-0.519714	-0.204690	0.960490	-0.416611	-0.218644	0.971200	-0.634192	-0.252076	1.008108	-0.378349	-0.285287	1.014956	-0.659965	-0.359215	1.010366	-0.449736	-0.363375	1.015837	-0.563903	-0.365186	1.013806	-0.508705	-0.292663	0.770914	-0.335921	-0.287046	0.709809	-0.336607	-0.215973	0.724558	-0.342868	-0.228897	0.782940	-0.343026	-0.249831	0.464120	-0.358269	-0.244391	0.450941	-0.456774	-0.380571	0.307941	-0.358736	-0.396103	0.270245	-0.371935	-0.339249	0.250323	-0.360139	-0.327169	0.288055	-0.351285	-0.408010	0.117744	-0.380091	-0.389619	0.126912	-0.460215	-0.463506	0.109294	-0.425235	-0.325007	0.034973	-0.351842	-0.271559	0.044080	-0.427471	-0.241166	0.031977	-0.425220	-0.305798	0.747978	-0.707827	-0.296356	0.689090	-0.710588	-0.224617	0.703036	-0.713701	-0.242846	0.762308	-0.711192	-0.243954	0.471517	-0.704854	-0.245873	0.459332	-0.600900	-0.365190	0.291636	-0.717187	-0.380947	0.254761	-0.707959	-0.321963	0.236323	-0.704208	-0.312854	0.278132	-0.714034	-0.386743	0.126796	-0.702268	-0.389314	0.131453	-0.623433	-0.448523	0.117003	-0.673486	-0.293859	0.037732	-0.707202	-0.265064	0.044055	-0.626797	-0.240901	0.036330	-0.631187	
754	3.7700	-0.326935	1.464536	-0.505735	-0.301025	1.462459	-0.695452	-0.251014	1.455254	-0.334644	-0.199476	1.398562	-0.519537	-0.204070	0.964799	-0.416764	-0.218274	0.975448	-0.634301	-0.251339	1.012512	-0.378520	-0.284881	1.019182	-0.659824	-0.358555	1.014618	-0.449720	-0.362847	1.019980	-0.563978	-0.364643	1.017945	-0.508722	-0.292583	0.775307	-0.335851	-0.287436	0.714165	-0.336456	-0.216281	0.728383	-0.343122	-0.228769	0.786854	-0.343304	-0.251684	0.468213	-0.358217	-0.246357	0.454873	-0.456883	-0.381112	0.310980	-0.358430	-0.396286	0.273074	-0.371591	-0.339313	0.253661	-0.359571	-0.327552	0.291531	-0.350821	-0.406853	0.120337	-0.379157	-0.388319	0.129380	-0.459195	-0.462130	0.112053	-0.424310	-0.324405	0.035457	-0.351714	-0.271414	0.044026	-0.427296	-0.241232	0.031986	-0.425315	-0.305961	0.752143	-0.707781	-0.296840	0.693193	-0.710462	-0.225019	0.706747	-0.713302	-0.242940	0.766126	-0.710910	-0.245577	0.475284	-0.704416	-0.247729	0.463096	-0.600385	-0.365377	0.294527	-0.716994	-0.380768	0.257532	-0.707934	-0.321630	0.239594	-0.704475	-0.312906	0.281551	-0.714120	-0.385400	0.129281	-0.702665	-0.387819	0.133745	-0.624020	-0.446988	0.119606	-0.673889	-0.293356	0.038099	-0.707050	-0.264906	0.044094	-0.626838	-0.240950	0.036336	-0.631122	
755	3.7750	-0.327098	1.468549	-0.505479	-0.301351	1.466958	-0.694978	-0.251093	1.459829	-0.334673	-0.199730	1.403145	-0.519368	-0.203453	0.969146	-0.416930	-0.217873	0.979678	-0.634404	-0.250580	1.017077	-0.378723	-0.284420	1.023443	-0.659698	-0.357874	1.018996	-0.449747	-0.362291	1.024211	-0.564094	-0.364076	1.022190	-0.508773	-0.292559	0.779764	-0.335785	-0.287892	0.718591	-0.336296	-0.216655	0.732270	-0.343321	-0.228695	0.790814	-0.343552	-0.253558	0.472379	-0.358100	-0.248261	0.458849	-0.456937	-0.381640	0.314075	-0.358167	-0.396436	0.275962	-0.371280	-0.339364	0.257080	-0.358960	-0.327925	0.295082	-0.350319	-0.405606	0.122968	-0.378223	-0.386852	0.131908	-0.458182	-0.460644	0.114867	-0.423467	-0.323778	0.035973	-0.351591	-0.271224	0.044020	-0.427084	-0.241312	0.032008	-0.425401	-0.306114	0.756386	-0.707743	-0.297343	0.697374	-0.710354	-0.225438	0.710499	-0.712921	-0.243019	0.769990	-0.710632	-0.247254	0.479069	-0.703969	-0.249569	0.466893	-0.599856	-0.365598	0.297437	-0.716680	-0.380608	0.260326	-0.707794	-0.321313	0.242899	-0.704711	-0.312996	0.285010	-0.714152	-0.384007	0.131753	-0.702956	-0.386172	0.136030	-0.624499	-0.445389	0.122233	-0.674110	-0.292880	0.038487	-0.706907	-0.264726	0.044140	-0.626879	-0.240987	0.036357	-0.631075	
756	3.7800	-0.327307	1.472546	-0.505216	-0.301738	1.471486	-0.694471	-0.251218	1.464424	-0.334727	-0.200036	1.407787	-0.519206	-0.202844	0.973497	-0.417109	-0.217443	0.983869	-0.634492	-0.249798	1.021769	-0.378956	-0.283888	1.027737	-0.659580	-0.357174	1.023470	-0.449802	-0.361700	1.028511	-0.564241	-0.363484	1.026520	-0.508855	-0.292600	0.784236	-0.335724	-0.288411	0.723036	-0.336128	-0.217099	0.736174	-0.343461	-0.228682	0.794785	-0.343759	-0.255456	0.476559	-0.357985	-0.250086	0.462824	-0.456948	-0.382142	0.317191	-0.357949	-0.396541	0.278876	-0.371009	-0.339386	0.260542	-0.358325	-0.328276	0.298669	-0.349795	-0.404273	0.125603	-0.377328	-0.385226	0.134456	-0.457184	-0.459042	0.117722	-0.422725	-0.323130	0.036518	-0.351449	-0.271017	0.044044	-0.426863	-0.241396	0.032058	-0.425466	-0.306260	0.760668	-0.707711	-0.297862	0.701596	-0.710267	-0.225868	0.714269	-0.712562	-0.243087	0.773873	-0.710360	-0.248978	0.482845	-0.703516	-0.251376	0.470686	-0.599322	-0.365846	0.300342	-0.716247	-0.380468	0.263103	-0.707528	-0.321015	0.246208	-0.704907	-0.313116	0.288474	-0.714140	-0.382573	0.134205	-0.703140	-0.384433	0.138284	-0.624896	-0.443736	0.124866	-0.674139	-0.292424	0.038902	-0.706724	-0.264527	0.044182	-0.626919	-0.241012	0.036383	-0.631046	
757	3.7850	-0.327555	1.476495	-0.504952	-0.302178	1.476004	-0.693937	-0.251387	1.468987	-0.334806	-0.200385	1.412443	-0.519049	-0.202250	0.977812	-0.417298	-0.216989	0.988002	-0.634558	-0.248992	1.026550	-0.379211	-0.283278	1.032050	-0.659471	-0.356460	1.028006	-0.449883	-0.361073	1.032858	-0.564408	-0.362869	1.030912	-0.508967	-0.292707	0.788674	-0.335676	-0.288982	0.727448	-0.335964	-0.217599	0.740047	-0.343539	-0.228729	0.798723	-0.343919	-0.257350	0.480712	-0.357867	-0.251823	0.466759	-0.456929	-0.382607	0.320291	-0.357778	-0.396592	0.281781	-0.370782	-0.339365	0.264007	-0.357687	-0.328597	0.302253	-0.349267	-0.402859	0.128230	-0.376469	-0.383449	0.137005	-0.456222	-0.457335	0.120592	-0.422075	-0.322463	0.037119	-0.351285	-0.270806	0.044115	-0.426634	-0.241492	0.032133	-0.425493	-0.306405	0.764957	-0.707687	-0.298389	0.705824	-0.710198	-0.226310	0.718034	-0.712231	-0.243148	0.777751	-0.710099	-0.250739	0.486589	-0.703061	-0.253136	0.474448	-0.598786	-0.366106	0.303221	-0.715708	-0.380336	0.265849	-0.707146	-0.320708	0.249499	-0.705079	-0.313259	0.291921	-0.714077	-0.381105	0.136615	-0.703226	-0.382620	0.140495	-0.625204	-0.442033	0.127494	-0.673972	-0.291997	0.039314	-0.706519	-0.264306	0.044239	-0.626936	-0.241033	0.036422	-0.631041	
758	3.7900	-0.327832	1.480365	-0.504681	-0.302669	1.480478	-0.693377	-0.251593	1.473484	-0.334905	-0.200767	1.417077	-0.518895	-0.201680	0.982054	-0.417488	-0.216512	0.992055	-0.634596	-0.248163	1.031369	-0.379481	-0.282615	1.036376	-0.659366	-0.355739	1.032562	-0.449986	-0.360416	1.037234	-0.564600	-0.362233	1.035346	-0.509098	-0.292879	0.793031	-0.335640	-0.289595	0.731785	-0.335807	-0.218146	0.743852	-0.343559	-0.228834	0.802586	-0.344033	-0.259228	0.484798	-0.357755	-0.253469	0.470619	-0.456893	-0.383028	0.323337	-0.357648	-0.396582	0.284637	-0.370597	-0.339289	0.267436	-0.357069	-0.328878	0.305796	-0.348753	-0.401364	0.130823	-0.375650	-0.381542	0.139536	-0.455309	-0.455543	0.123456	-0.421502	-0.321782	0.037791	-0.351094	-0.270595	0.044242	-0.426407	-0.241605	0.032285	-0.425437	-0.306553	0.769215	-0.707664	-0.298924	0.710017	-0.710141	-0.226763	0.721765	-0.711928	-0.243213	0.781595	-0.709855	-0.252526	0.490273	-0.702606	-0.254830	0.478151	-0.598248	-0.366366	0.306051	-0.715078	-0.380198	0.268545	-0.706665	-0.320383	0.252757	-0.705221	-0.313411	0.295328	-0.713970	-0.379610	0.138962	-0.703214	-0.380717	0.142679	-0.625379	-0.440289	0.130107	-0.673640	-0.291614	0.039742	-0.706286	-0.264062	0.044305	-0.626953	-0.241039	0.036474	-0.631047	
759	3.7950	-0.328127	1.484125	-0.504404	-0.303193	1.484865	-0.692791	-0.251835	1.477867	-0.335015	-0.201178	1.421647	-0.518745	-0.201133	0.986195	-0.417675	-0.216013	0.996006	-0.634598	-0.247315	1.036170	-0.379759	-0.281896	1.040701	-0.659256	-0.355022	1.037095	-0.450108	-0.359729	1.041614	-0.564805	-0.361584	1.039786	-0.509246	-0.293109	0.797267	-0.335617	-0.290243	0.736005	-0.335664	-0.218736	0.747532	-0.343529	-0.228993	0.806343	-0.344100	-0.261078	0.488779	-0.357664	-0.255023	0.474388	-0.456861	-0.383396	0.326295	-0.357558	-0.396508	0.287410	-0.370451	-0.339150	0.270795	-0.356490	-0.329111	0.309262	-0.348269	-0.399808	0.133348	-0.374892	-0.379541	0.142012	-0.454419	-0.453691	0.126293	-0.420988	-0.321067	0.038532	-0.350940	-0.270366	0.044429	-0.426217	-0.241747	0.032476	-0.425291	-0.306714	0.773395	-0.707636	-0.299463	0.714136	-0.710086	-0.227223	0.725437	-0.711654	-0.243291	0.785366	-0.709629	-0.254332	0.493878	-0.702151	-0.256475	0.481758	-0.597710	-0.366612	0.308808	-0.714377	-0.380040	0.271156	-0.706097	-0.320023	0.255962	-0.705326	-0.313564	0.298650	-0.713790	-0.378100	0.141253	-0.703121	-0.378746	0.144841	-0.625412	-0.438516	0.132696	-0.673153	-0.291255	0.040195	-0.706007	-0.263783	0.044436	-0.626967	-0.240985	0.036553	-0.631078	
